<svg version="1.1" xmlns="http://www.w3.org/2000/svg" xmlns:xlink="http://www.w3.org/1999/xlink" width="250px" height="250px" viewBox="0,0,256,256"><g fill="#ffffff" fill-rule="nonzero" stroke="none" stroke-width="1" stroke-linecap="butt" stroke-linejoin="miter" stroke-miterlimit="10" stroke-dasharray="" stroke-dashoffset="0" font-family="none" font-weight="none" font-size="none" text-anchor="none" style="mix-blend-mode: normal"><g transform="translate(0.00091,-0.00104) scale(1.024,1.024)"><g transform="translate(1064.959,317.995)" id="Layer_44"><path d="M-817.674,-85.938l-26.343,-52.645c-0.681,-1.35 -2.061,-2.203 -3.572,-2.209h-36.143c-2.217,-0.079 -4.08,1.653 -4.159,3.871c-0.08,2.218 1.653,4.08 3.871,4.16c0.097,0.004 0.192,0.004 0.288,0h33.701l25.207,50.399c1.111,1.841 0.52,4.234 -1.32,5.346c-0.631,0.381 -1.355,0.574 -2.092,0.56h-223.197c-2.149,0.055 -3.937,-1.644 -3.992,-3.793c-0.019,-0.743 0.175,-1.476 0.56,-2.112l25.016,-50.399h33.674c2.218,0.08 4.081,-1.653 4.16,-3.871c0.079,-2.218 -1.654,-4.08 -3.872,-4.16c-0.096,-0.003 -0.192,-0.003 -0.289,0h-36.142c-1.511,0.006 -2.892,0.859 -3.572,2.209l-26.342,52.645c-2.973,5.954 -0.556,13.189 5.398,16.162c1.678,0.838 3.529,1.272 5.406,1.269h222.938c6.654,0.014 12.061,-5.37 12.074,-12.024c0.004,-1.876 -0.431,-3.728 -1.27,-5.406h0.012z" id="Tracé_19683"></path><path d="M-976.095,-104.649c-2.217,-0.08 -4.08,1.653 -4.159,3.871c-0.079,2.218 1.653,4.08 3.871,4.159c0.096,0.004 0.192,0.004 0.289,0h72.284c2.219,0.08 4.08,-1.653 4.16,-3.871c0.08,-2.218 -1.653,-4.08 -3.871,-4.159c-0.096,-0.004 -0.192,-0.004 -0.289,0h-26.503c19.032,-20.08 70.677,-78.749 70.677,-132.519c0,-44.356 -35.959,-80.314 -80.314,-80.314c-44.357,0 -80.315,35.958 -80.315,80.314c0,53.77 51.644,112.641 70.677,132.519zM-939.952,-309.442c39.916,0 72.277,32.356 72.283,72.273c0,54.293 -58.711,117.058 -72.283,130.875c-13.574,-13.775 -72.285,-76.541 -72.285,-130.875c0,-39.921 32.363,-72.283 72.285,-72.283v0z" id="Tracé_19684"></path><path d="M-992.156,-100.632c2.219,0.009 4.024,-1.783 4.033,-4.002c0.004,-1.074 -0.421,-2.104 -1.182,-2.862l-12.033,-12.049c-0.758,-0.753 -1.784,-1.172 -2.852,-1.167h-20.091c-2.217,-0.079 -4.08,1.653 -4.16,3.871c-0.08,2.218 1.654,4.08 3.871,4.16c0.096,0.003 0.192,0.003 0.289,0h18.432l10.841,10.888c0.758,0.75 1.784,1.168 2.852,1.161z" id="Tracé_19685"></path><path d="M-859.638,-120.712h-20.064c-1.068,-0.005 -2.094,0.414 -2.852,1.167l-12.049,12.049c-1.609,1.541 -1.665,4.094 -0.125,5.703c1.541,1.609 4.095,1.665 5.703,0.124c0.043,-0.041 0.084,-0.082 0.125,-0.124l10.841,-10.888h18.421c2.217,-0.08 3.951,-1.942 3.871,-4.16c-0.076,-2.105 -1.765,-3.795 -3.871,-3.871z" id="Tracé_19686"></path><path d="M-1032.311,-92.6c-2.218,0.08 -3.951,1.942 -3.872,4.16c0.075,2.105 1.765,3.795 3.872,3.871h32.144c2.218,0.079 4.08,-1.654 4.16,-3.871c0.08,-2.218 -1.654,-4.08 -3.872,-4.16c-0.096,-0.004 -0.192,-0.004 -0.289,0z" id="Tracé_19687"></path><path d="M-883.731,-88.583c0,2.22 1.8,4.019 4.019,4.019v0h32.145c2.218,-0.08 3.951,-1.942 3.871,-4.16c-0.075,-2.105 -1.765,-3.795 -3.871,-3.871h-32.145c-2.218,-0.001 -4.016,1.795 -4.019,4.012z" id="Tracé_19688"></path><path d="M-895.78,-237.168c0,-24.396 -19.776,-44.173 -44.172,-44.173c-24.396,0 -44.174,19.777 -44.174,44.173c0,24.396 19.777,44.173 44.174,44.173v0c24.395,0 44.172,-19.777 44.172,-44.173zM-976.095,-237.168c0,-19.96 16.182,-36.142 36.143,-36.142c19.96,0 36.141,16.182 36.141,36.142c0,19.961 -16.181,36.143 -36.141,36.143c-19.962,-0.001 -36.143,-16.182 -36.143,-36.143z" id="Tracé_19689"></path></g></g></g></svg>